<svg width="30" height="26" viewBox="0 0 30 26" fill="none" xmlns="http://www.w3.org/2000/svg">
<path d="M27.6758 5.97695C27.8637 5.34219 27.6758 4.875 26.7719 4.875H23.7809C23.0192 4.875 22.6688 5.27617 22.4809 5.72305C22.4809 5.72305 20.9575 9.43516 18.8044 11.8422C18.1087 12.5379 17.7887 12.7613 17.4079 12.7613C17.22 12.7613 16.9305 12.5379 16.9305 11.9031V5.97695C16.9305 5.21523 16.7172 4.875 16.0876 4.875H11.3852C10.9079 4.875 10.6235 5.23047 10.6235 5.56055C10.6235 6.28164 11.7001 6.44922 11.8118 8.48047V12.8883C11.8118 13.8531 11.6391 14.0309 11.2583 14.0309C10.2426 14.0309 7.77466 10.3035 6.31216 6.03789C6.01763 5.21016 5.72818 4.875 4.96138 4.875H1.97036C1.11724 4.875 0.94458 5.27617 0.94458 5.72305C0.94458 6.51523 1.96021 10.4508 5.67232 15.6508C8.14537 19.2004 11.629 21.125 14.7977 21.125C16.702 21.125 16.9356 20.6984 16.9356 19.9621C16.9356 16.5699 16.7629 16.25 17.7176 16.25C18.1594 16.25 18.9212 16.4734 20.6985 18.1848C22.7297 20.216 23.0649 21.125 24.2024 21.125H27.1934C28.0466 21.125 28.4782 20.6984 28.2294 19.8555C27.6606 18.0832 23.8165 14.4371 23.6438 14.1934C23.202 13.6246 23.329 13.3707 23.6438 12.8629C23.6489 12.8578 27.3001 7.71875 27.6758 5.97695Z" fill="black"/>
</svg>
